#!OML:ASF E:\Style4\Style4.ASF
:FULLY-SPECIFIED
:DEGREES
2396
root 0.237445 18.0165 -1.3201 0.384613 -20.3966 2.34379
lowerback 2.72845 1.3292 -0.8403
upperback 1.66726 1.7492 0.258699
thorax 0.145911 0.866115 0.690553
lowerneck 6.43584 -7.24256 -4.85251
upperneck -0.93758 -9.86705 7.00019
head -0.778578 -5.04486 3.30477
rclavicle 8.72665e-014 -5.56597e-015
rhumerus -318.802 -15.7854 -374.19
rradius 114.107
rwrist -46.0086
rhand -11.2286 31.1236
rfingers 7.12502
rthumb 14.8003 1.6721
lclavicle 8.72665e-014 -5.56597e-015
lhumerus -53.6707 -34.2285 97.0323
lradius 103.494
lwrist 7.07906
lhand -7.59204 19.7796
lfingers 7.12502
lthumb 18.3013 48.9386
rfemur -11.4313 12.9541 14.0699
rtibia 23.9929
rfoot -14.3008 -4.48877
rtoes -13.7882
lfemur 1.7879 6.25586 -24.5655
ltibia 14.8086
lfoot -23.1277 21.985
ltoes -5.43788
2397
root 0.234118 18.0131 -1.3227 0.387986 -20.8349 2.35144
lowerback 2.80788 1.19889 -0.934435
upperback 1.58911 1.5728 0.362935
thorax 0.0192821 0.777847 0.851673
lowerneck 6.5731 -7.32402 -4.72244
upperneck -0.86559 -9.97611 6.80382
head -0.788627 -5.09784 3.22166
rclavicle -1.48095e-014 5.96354e-015
rhumerus -318.892 -15.7015 -373.985
rradius 114.084
rwrist -46.1628
rhand -11.23 31.2461
rfingers 7.12502
rthumb 14.7989 1.79451
lclavicle -1.48095e-014 5.96354e-015
lhumerus -53.725 -34.1105 97.1466
lradius 103.44
lwrist 6.98157
lhand -7.57332 19.6592
lfingers 7.12502
lthumb 18.3194 48.8165
rfemur -11.6265 13.1404 14.0665
rtibia 24.1141
rfoot -14.3008 -4.28414
rtoes -14.1516
lfemur 1.76824 6.43418 -24.5814
ltibia 14.8649
lfoot -23.2889 22.1195
ltoes -5.33902
2398
root 0.229098 18.0101 -1.31955 0.370369 -21.3513 2.32428
lowerback 2.85157 1.09961 -0.969008
upperback 1.53638 1.43951 0.466954
thorax -0.0597328 0.711296 0.979723
lowerneck 6.75523 -7.37957 -4.75856
upperneck -0.810021 -10.0628 6.70173
head -0.800455 -5.14149 3.20268
rclavicle -2.53947e-014 1.43125e-014
rhumerus -319.001 -15.5944 -373.815
rradius 114.121
rwrist -46.2389
rhand -11.1631 31.109
rfingers 7.12502
rthumb 14.8634 1.66219
lclavicle -2.53947e-014 1.43125e-014
lhumerus -53.8186 -34.0124 97.2697
lradius 103.449
lwrist 6.7932
lhand -7.48055 19.6094
lfingers 7.12502
lthumb 18.4086 48.7584
rfemur -11.7726 13.3935 14.1037
rtibia 24.2426
rfoot -14.3273 -4.03682
rtoes -14.1205
lfemur 1.81467 6.72699 -24.5488
ltibia 14.9179
lfoot -23.4582 22.2045
ltoes -5.05491
2399
root 0.224764 18.0061 -1.31437 0.308558 -21.7901 2.36749
lowerback 2.83088 0.975755 -1.05983
upperback 1.55265 1.27266 0.569393
thorax -0.0316738 0.626707 1.14099
lowerneck 6.94909 -7.41033 -5.03846
upperneck -0.832526 -10.1311 6.76898
head -0.819784 -5.17881 3.28674
rclavicle 8.84592e-015 3.57812e-015
rhumerus -319.049 -15.6207 -373.63
rradius 114.216
rwrist -46.3637
rhand -11.1875 30.7145
rfingers 7.12502
rthumb 14.8399 1.26594
lclavicle 8.84592e-015 3.57812e-015
lhumerus -53.8009 -33.921 97.4086
lradius 103.457
lwrist 6.74717
lhand -7.51117 19.5451
lfingers 7.12502
lthumb 18.3791 48.6968
rfemur -11.8482 13.5909 14.0763
rtibia 24.3464
rfoot -14.3751 -3.85259
rtoes -14.291
lfemur 1.86631 6.94639 -24.5971
ltibia 15.0206
lfoot -23.626 22.3192
ltoes -5.0515
2400
root 0.22112 18.0024 -1.311 0.280362 -22.1285 2.40841
lowerback 2.82486 0.854047 -1.08298
upperback 1.57885 1.10995 0.612645
thorax 0.00178561 0.544635 1.20336
lowerneck 6.91233 -7.50342 -5.06102
upperneck -0.765809 -10.2597 6.70799
head -0.785259 -5.24103 3.2666
rclavicle -3.63279e-014 4.77083e-015
rhumerus -319.255 -15.6815 -373.339
rradius 114.206
rwrist -46.1468
rhand -11.6365 30.8692
rfingers 7.12502
rthumb 14.4073 1.3892
lclavicle -3.63279e-014 4.77083e-015
lhumerus -53.6983 -34.0181 97.4731
lradius 103.398
lwrist 6.81249
lhand -7.58711 19.5775
lfingers 7.12502
lthumb 18.3061 48.7361
rfemur -11.9314 13.7392 14.0471
rtibia 24.403
rfoot -14.3978 -3.74132
rtoes -14.4508
lfemur 1.85022 7.08644 -24.646
ltibia 15.1507
lfoot -23.8646 22.368
ltoes -4.70642
2401
root 0.217277 17.9992 -1.30636 0.251777 -22.5293 2.30482
lowerback 2.87605 0.750684 -0.949611
upperback 1.61364 0.974853 0.679533
thorax 0.0137254 0.477229 1.20058
lowerneck 6.9917 -7.60599 -5.11772
upperneck -0.786478 -10.4039 6.66911
head -0.795378 -5.31325 3.26972
rclavicle 2.98674e-014 -1.19271e-015
rhumerus -319.524 -15.6247 -373.004
rradius 114.139
rwrist -45.7383
rhand -12.1338 31.3245
rfingers 7.12502
rthumb 13.928 1.811
lclavicle 2.98674e-014 -1.19271e-015
lhumerus -53.5897 -34.1536 97.5323
lradius 103.35
lwrist 6.89592
lhand -7.70032 19.6427
lfingers 7.12502
lthumb 18.1972 48.8115
rfemur -11.9541 13.9395 14.1811
rtibia 24.4461
rfoot -14.4301 -3.56162
rtoes -14.2696
lfemur 1.89757 7.32152 -24.5276
ltibia 15.2861
lfoot -24.0902 22.4522
ltoes -4.48251
2402
root 0.211338 17.9946 -1.29877 0.188008 -23.035 2.05972
lowerback 2.98075 0.672999 -0.686466
upperback 1.65561 0.876976 0.795659
thorax 0.00296149 0.429081 1.17386
lowerneck 7.25337 -7.64815 -5.44777
upperneck -0.809113 -10.4947 6.80817
head -0.817869 -5.36416 3.39106
rclavicle -2.17172e-014 -2.78299e-015
rhumerus -319.731 -15.5045 -372.771
rradius 114.142
rwrist -45.5299
rhand -12.2903 31.4328
rfingers 7.12502
rthumb 13.7772 1.909
lclavicle -2.17172e-014 -2.78299e-015
lhumerus -53.553 -34.2402 97.5995
lradius 103.397
lwrist 6.91524
lhand -7.66195 19.8689
lfingers 7.12502
lthumb 18.2341 49.0343
rfemur -11.876 14.2517 14.4881
rtibia 24.4791
rfoot -14.4603 -3.32403
rtoes -13.8965
lfemur 2.03923 7.63506 -24.2474
ltibia 15.4753
lfoot -24.3295 22.5259
ltoes -4.47461
